HIERARCHY
ROOT Hips
{
	OFFSET 0.000000 0.000000 0.000000 
	CHANNELS 6 Xposition Yposition Zposition Yrotation Zrotation Xrotation 
	JOINT Lumbar
	{
		OFFSET 0.000000 0.000000 0.000000 
		CHANNELS 3 Zrotation Xrotation Yrotation
		JOINT Neck
		{
			OFFSET 0.000000 0.445665 0.000000 
			CHANNELS 3 Zrotation Xrotation Yrotation
			End Site
			{
				OFFSET 0.000000 0.227535 0.000000 
			}
		}
		JOINT RightShoulder
		{
			OFFSET 0.019635 0.377685 0.194865 
			CHANNELS 3 Zrotation Xrotation Yrotation
			JOINT RightElbow
			{
				OFFSET 0.000000 -0.243375 0.000000 
				CHANNELS 2 Zrotation Yrotation
				JOINT RightWrist
				{
					OFFSET 0.000000 -0.264825 0.000000 
					CHANNELS 2 Zrotation Xrotation
					End Site
					{
						OFFSET 0.006600 -0.176220 0.000990 
					}
				}
			}
		}
		JOINT LeftShoulder
		{
			OFFSET 0.019635 0.377685 -0.194865 
			CHANNELS 3 Zrotation Xrotation Yrotation
			JOINT LeftElbow
			{
				OFFSET 0.000000 -0.243375 0.000000 
				CHANNELS 2 Zrotation Yrotation
				JOINT LeftWrist
				{
					OFFSET 0.000000 -0.264825 0.000000 
					CHANNELS 2 Zrotation Xrotation
					End Site
					{
						OFFSET 0.006600 -0.176220 -0.000990 
					}
				}
			}
		}
	}
	JOINT RightHip
	{
		OFFSET 0.052140 -0.069960 0.075570 
		CHANNELS 3 Zrotation Xrotation Yrotation
		JOINT RightKnee
		{
			OFFSET 0.000000 -0.402270 0.000000 
			CHANNELS 1 Zrotation
			JOINT RightAnkle
			{
				OFFSET 0.000000 -0.404085 0.000000 
				CHANNELS 3 Zrotation Xrotation Yrotation
				End Site
				{
					OFFSET 0.204105 -0.089430 0.008415 
				}
			}
		}
	}
	JOINT LeftHip
	{
		OFFSET 0.052140 -0.069960 -0.075570 
		CHANNELS 3 Zrotation Xrotation Yrotation
		JOINT LeftKnee
		{
			OFFSET 0.000000 -0.402270 0.000000 
			CHANNELS 1 Zrotation
			JOINT LeftAnkle
			{
				OFFSET 0.000000 -0.404085 0.000000 
				CHANNELS 3 Zrotation Xrotation Yrotation
				End Site
				{
					OFFSET 0.204105 -0.089430 -0.008415 
				}
			}
		}
	}
}
MOTION
Frames: 14
Frame Time: 0.02
-0.16493 -0.03201 -0.01822 12.03473 -23.6702 -4.67672 38.27396 3.41692 -0.50173 -6.33974 7.33601 -2.1119 8.27725 -5.82399 48.49848 128.81888 66.31906 21.76086 -4.01337 -4.87812 30.22007 -16.27341 53.49922 -90.91946 7.04853 -0.66801 42.27138 -5.72514 -11.04652 -25.12257 -6.77777 -2.00655 -3.22166 44.83098 7.0498 9.57985 -28.59941 -6.70743 1.78858 3.13127
-0.16643 -0.03232 -0.01366 12.21021 -23.72685 -4.55828 37.86733 3.48523 -0.41003 -6.55242 7.66473 -2.11214 7.88664 -5.02679 49.41267 129.38544 67.2281 21.88801 -4.06531 -5.69423 29.84927 -16.25499 52.30961 -91.37989 7.28628 -0.74465 42.44989 -5.60623 -11.21287 -25.06053 -6.7697 -1.99511 -3.21875 45.14213 7.18159 9.47433 -28.63059 -6.74723 1.77491 3.12499
-0.16808 -0.03273 -0.00896 12.44331 -23.77981 -4.43077 37.44397 3.5601 -0.28676 -6.89808 7.93645 -2.11236 7.27572 -4.49181 49.91298 129.62977 68.39541 21.93744 -4.21522 -6.53837 29.39689 -16.19322 51.28953 -91.9041 7.64598 -0.81008 42.63464 -5.49717 -11.36163 -25.00714 -6.76133 -1.98924 -3.21958 45.49335 7.28155 9.27661 -28.68216 -6.79051 1.76709 3.12034
-0.16967 -0.0331 -0.0043 12.65566 -23.83493 -4.30954 37.02916 3.63344 -0.17923 -7.18362 8.23167 -2.11259 6.77457 -3.8467 50.59421 130.00629 69.4274 22.02307 -4.31129 -7.37118 28.98154 -16.14615 50.20907 -92.39664 7.94875 -0.87955 42.81712 -5.38444 -11.52928 -24.95202 -6.75298 -1.98065 -3.2184 45.83099 7.39442 9.10764 -28.72809 -6.83251 1.75721 3.11533
-0.17126 -0.03345 0.00029 12.8449 -23.89047 -4.17996 36.60909 3.7009 -0.06824 -7.47137 8.53326 -2.11282 6.23619 -3.14794 51.29777 130.40588 70.57652 22.09942 -4.4338 -8.21155 28.5607 -16.10881 49.06484 -92.90898 8.26197 -0.95471 43.00128 -5.26849 -11.65813 -24.88878 -6.7451 -1.97226 -3.21819 46.15282 7.5144 8.99069 -28.75807 -6.87296 1.74487 3.10879
-0.17287 -0.03386 0.00504 13.09631 -23.94345 -4.06557 36.19675 3.78196 0.04405 -7.78339 8.80935 -2.11305 5.72221 -2.62926 51.85936 130.69469 71.52758 22.17813 -4.53054 -9.0362 28.13516 -16.04622 48.09066 -93.39195 8.58096 -1.01486 43.18211 -5.16126 -11.86067 -24.84428 -6.73615 -1.96505 -3.21702 46.51598 7.61317 8.74892 -28.82669 -6.91761 1.7385 3.10555
-0.17452 -0.03442 0.01013 13.50163 -23.98842 -3.99233 35.80679 3.90053 0.151 -8.14664 9.0308 -2.11326 5.32329 -2.54285 52.13212 130.76164 71.86134 22.29076 -4.51819 -9.8282 27.70353 -15.91244 47.55114 -93.77813 8.88402 -1.03652 43.34892 -5.0786 -12.27219 -24.84658 -6.7245 -1.95917 -3.21186 46.97941 7.64392 8.13281 -28.99266 -6.97239 1.75389 3.11412
-0.17618 -0.03504 0.01537 13.96805 -24.03084 -3.9351 35.42608 4.03225 0.25869 -8.52633 9.22868 -2.11347 4.9573 -2.63102 52.2768 130.73241 71.98132 22.40795 -4.48029 -10.59843 27.27312 -15.75813 47.17496 -94.13112 9.18825 -1.04324 43.51203 -5.00374 -12.75663 -24.86776 -6.71174 -1.95452 -3.20576 47.48299 7.65698 7.40265 -29.19748 -7.03139 1.77407 3.12548
-0.17783 -0.03564 0.02056 14.40905 -24.07538 -3.87237 35.04301 4.15696 0.36719 -8.88724 9.43683 -2.11368 4.57945 -2.642 52.4804 130.74947 72.19907 22.51826 -4.46557 -11.36536 26.85131 -15.62305 46.71869 -94.49844 9.49289 -1.05645 43.6785 -4.92358 -13.20666 -24.88198 -6.69933 -1.94965 -3.20038 47.9706 7.68964 6.76031 -29.38761 -7.08893 1.78757 3.13348
-0.17952 -0.03621 0.02571 14.84273 -24.11612 -3.80188 34.65075 4.28637 0.47203 -9.30057 9.64516 -2.1139 4.18003 -2.65267 52.66762 130.74462 72.42776 22.6454 -4.40728 -12.18919 26.38774 -15.44591 46.29263 -94.87229 9.79869 -1.07052 43.83864 -4.85167 -13.66407 -24.88976 -6.68752 -1.94328 -3.19377 48.45111 7.67395 5.96773 -29.56664 -7.14482 1.81966 3.15011
-0.18112 -0.03686 0.03096 15.30469 -24.16377 -3.75144 34.28106 4.40889 0.58414 -9.60686 9.84781 -2.1141 3.83726 -2.70224 52.86246 130.76577 72.57465 22.7404 -4.42986 -12.88891 26.01273 -15.35032 45.84087 -95.22258 10.09973 -1.07945 44.0104 -4.76367 -14.12048 -24.91524 -6.67424 -1.94055 -3.18959 48.95413 7.75326 5.45602 -29.77686 -7.20492 1.81486 3.14975
-0.18252 -0.03777 0.03647 15.83567 -24.2347 -3.75264 33.96319 4.51026 0.71705 -9.61314 10.04483 -2.11424 3.63513 -2.81471 53.12473 130.8949 72.58694 22.7391 -4.70459 -13.25061 25.88083 -15.50126 45.27187 -95.52587 10.39537 -1.0773 44.21962 -4.63522 -14.58389 -24.98533 -6.65692 -1.94489 -3.19116 49.51942 8.11599 5.80249 -30.07068 -7.27708 1.70029 3.09873
-0.18382 -0.03877 0.04207 16.39156 -24.31192 -3.7734 33.66948 4.60396 0.85686 -9.5107 10.23631 -2.11436 3.49152 -2.95937 53.39839 131.05295 72.5167 22.70665 -5.05718 -13.488 25.83868 -15.73239 44.67197 -95.80459 10.68408 -1.07067 44.43956 -4.48943 -15.03933 -25.07241 -6.6382 -1.95323 -3.19537 50.10352 8.57205 6.42661 -30.39285 -7.35304 1.54959 3.03104
-0.18514 -0.03972 0.04761 16.93199 -24.384 -3.7852 33.37002 4.70046 0.99288 -9.45741 10.428 -2.11449 3.32721 -3.08923 53.65906 131.19113 72.45583 22.69341 -5.35849 -13.7827 25.75655 -15.91612 44.08908 -96.08746 10.97003 -1.0665 44.65183 -4.34738 -15.47954 -25.15152 -6.62027 -1.96156 -3.19917 50.67272 8.97444 6.88717 -30.69769 -7.4263 1.41987 2.973
